<svg width="32" height="32" viewBox="0 0 32 32" fill="none" xmlns="http://www.w3.org/2000/svg">
    <circle cx="16" cy="16" r="16" fill="white"/>
    <path fill-rule="evenodd" clip-rule="evenodd" d="M19.8934 9.94976C17.0031 10.0231 16.2489 5.21765 16.0583 2.25936C16.0531 2.17846 15.9469 2.17846 15.9417 2.25936C15.7511 5.21765 14.9969 10.023 12.1066 9.94975C10.8479 9.91783 9.34435 8.96471 8.48578 8.33629C8.42314 8.29044 8.29044 8.42313 8.3363 8.48578C8.96471 9.34434 9.91784 10.8479 9.94976 12.1066C10.0229 14.9921 5.23353 15.7486 2.27405 15.9408C2.19314 15.946 2.19292 16.0536 2.27383 16.0589C5.24588 16.2502 10.0639 17.0054 9.94976 19.8934C9.8932 21.3248 8.63271 23.0858 8.10143 23.7674C8.05809 23.823 8.13118 23.9106 8.19359 23.8778C8.96352 23.4735 10.9415 22.5351 12.3749 22.7358C14.8862 23.0875 15.6636 26.927 15.9007 29.5514C15.908 29.6323 16.092 29.6323 16.0993 29.5514C16.3364 26.927 17.1138 23.0875 19.6251 22.7358C21.0585 22.5351 23.0365 23.4735 23.8064 23.8778C23.8688 23.9106 23.9419 23.823 23.8986 23.7674C23.3673 23.0858 22.1068 21.3248 22.0502 19.8934C21.9361 17.0054 26.7541 16.2502 29.7262 16.0589C29.8071 16.0536 29.8069 15.946 29.7259 15.9408C26.7665 15.7486 21.9771 14.9921 22.0502 12.1066C22.0822 10.8479 23.0353 9.34434 23.6637 8.48578C23.7096 8.42313 23.5769 8.29044 23.5142 8.33629C22.6557 8.96471 21.1521 9.91783 19.8934 9.94976Z" fill="#B90064"/>
</svg>
