<svg width="64" height="64" viewBox="0 0 64 64" xmlns="http://www.w3.org/2000/svg">
    <path fill-rule="evenodd" clip-rule="evenodd" d="M41.1844 9.82691C36.799 8.0104 31.9734 7.53512 27.3178 8.46117C22.6623 9.38721 18.3859 11.673 15.0295 15.0295C11.673 18.3859 9.38721 22.6623 8.46117 27.3178C7.53512 31.9734 8.0104 36.799 9.82691 41.1844C11.6434 45.5698 14.7195 49.3181 18.6663 51.9553C21.4989 53.8479 24.6885 55.1072 28.0184 55.6675C30.197 56.034 32 57.7909 32 60V60C32 62.2092 30.2022 64.0258 28.0103 63.7504C23.0951 63.1327 18.371 61.3795 14.2218 58.607C8.95939 55.0908 4.85787 50.0931 2.43587 44.2459C0.0138652 38.3986 -0.619842 31.9645 0.614885 25.7571C1.84961 19.5497 4.89732 13.8479 9.3726 9.3726C13.8479 4.89732 19.5497 1.84961 25.7571 0.614885C31.9645 -0.619842 38.3986 0.0138652 44.2459 2.43587C50.0931 4.85787 55.0908 8.95939 58.607 14.2218C61.3795 18.371 63.1327 23.0951 63.7504 28.0103C64.0258 30.2022 62.2092 32 60 32V32C57.7909 32 56.034 30.197 55.6675 28.0184C55.1072 24.6885 53.8479 21.4989 51.9553 18.6663C49.3181 14.7195 45.5698 11.6434 41.1844 9.82691Z"/>
</svg>