<svg width="20" height="20" viewBox="0 0 20 20" fill="none" xmlns="http://www.w3.org/2000/svg">
    <path fill-rule="evenodd" clip-rule="evenodd" d="M12.92 5.46232C10.9279 5.51284 10.2888 2.47304 10.0874 0.258208C10.0801 0.177478 9.91993 0.177478 9.91259 0.258208C9.71116 2.47304 9.07208 5.51283 7.07996 5.46231C6.2184 5.44046 5.20383 4.84312 4.54367 4.38065C4.48009 4.33611 4.33611 4.48008 4.38066 4.54367C4.84313 5.20383 5.44047 6.21839 5.46232 7.07996C5.51273 9.06775 2.48624 9.70837 0.272652 9.91127C0.191913 9.91867 0.191887 10.0807 0.272632 10.0881C2.49649 10.2901 5.54095 10.9298 5.46232 12.92C5.42181 13.9452 4.55789 15.1958 4.13313 15.7516C4.09032 15.8076 4.16532 15.8976 4.22803 15.8654C4.85458 15.5438 6.25424 14.9081 7.28117 15.0519C8.97771 15.2894 9.61915 17.6494 9.85971 19.554C9.86989 19.6346 10.1301 19.6346 10.1403 19.554C10.3808 17.6494 11.0223 15.2894 12.7188 15.0519C13.7458 14.9081 15.1454 15.5438 15.772 15.8654C15.8347 15.8976 15.9097 15.8076 15.8669 15.7516C15.4421 15.1958 14.5782 13.9452 14.5377 12.92C14.4591 10.9298 17.5035 10.2901 19.7274 10.0881C19.8081 10.0807 19.8081 9.91867 19.7273 9.91127C17.5138 9.70837 14.4873 9.06775 14.5377 7.07996C14.5595 6.2184 15.1569 5.20383 15.6193 4.54367C15.6639 4.48008 15.5199 4.33611 15.4563 4.38066C14.7962 4.84312 13.7816 5.44047 12.92 5.46232Z" fill="black"/>
</svg>
